<svg width="103" height="25" viewBox="0 0 103 25" fill="none" xmlns="http://www.w3.org/2000/svg">
<path d="M89.8351 25C86.3624 25 83.4579 23.8208 81.1217 21.4623C78.8171 19.0723 77.6648 16.0849 77.6648 12.5C77.6648 8.88365 78.8645 5.89623 81.2638 3.53774C83.6947 1.17925 86.7413 0 90.4034 0C94.034 0 97.0332 1.16352 99.4009 3.49057C101.8 5.81761 103 8.74214 103 12.2642V24.5283H98.5486V20.2358C97.6014 21.7138 96.3386 22.8774 94.7601 23.7264C93.2132 24.5755 91.5715 25 89.8351 25ZM98.1697 12.5C98.1697 10.2358 97.4278 8.34906 95.944 6.83962C94.4602 5.33019 92.5818 4.57547 90.3087 4.57547C88.0672 4.57547 86.2046 5.33019 84.7208 6.83962C83.237 8.34906 82.495 10.2358 82.495 12.5C82.495 14.7956 83.237 16.6981 84.7208 18.2075C86.2046 19.6855 88.0672 20.4245 90.3087 20.4245C92.5818 20.4245 94.4602 19.6855 95.944 18.2075C97.4278 16.6981 98.1697 14.7956 98.1697 12.5Z" fill="black"/>
<path d="M68.769 21.5095C68.2639 22.7673 67.6956 23.6321 67.0642 24.1038C66.4328 24.5441 65.6277 24.7642 64.6491 24.7642C63.6704 24.7642 62.8496 24.5283 62.1866 24.0566C61.5236 23.585 60.9711 22.7359 60.5291 21.5095L52.1946 0.471741H57.309L64.2702 19.2453C64.3649 19.4969 64.5228 19.6227 64.7438 19.6227C64.9332 19.6227 65.0753 19.4969 65.17 19.2453L71.9892 0.471741H77.0088L68.769 21.5095Z" fill="black"/>
<path d="M47.9921 21.5094C45.6244 23.8365 42.6094 25 38.9473 25C35.2851 25 32.2543 23.8365 29.855 21.5094C27.4872 19.1509 26.3033 16.1478 26.3033 12.5C26.3033 8.88365 27.4872 5.89623 29.855 3.53774C32.2543 1.17925 35.2851 0 38.9473 0C42.6094 0 45.6244 1.17925 47.9921 3.53774C50.3915 5.89623 51.5912 8.88365 51.5912 12.5C51.5912 16.1478 50.3915 19.1509 47.9921 21.5094ZM33.312 18.2075C34.7958 19.6855 36.6742 20.4245 38.9473 20.4245C41.2203 20.4245 43.083 19.6855 44.5352 18.2075C46.019 16.6981 46.7609 14.7956 46.7609 12.5C46.7609 10.2044 46.019 8.31761 44.5352 6.83962C43.083 5.33019 41.2203 4.57547 38.9473 4.57547C36.6742 4.57547 34.7958 5.33019 33.312 6.83962C31.8597 8.31761 31.1336 10.2044 31.1336 12.5C31.1336 14.7956 31.8597 16.6981 33.312 18.2075Z" fill="black"/>
<path d="M24.3407 15.7075C23.7093 18.5063 22.3202 20.7547 20.1734 22.4528C18.0266 24.1509 15.4379 25 12.4071 25C8.83969 25 5.87208 23.8208 3.5043 21.4623C1.1681 19.1038 0 16.1164 0 12.5C0 8.88365 1.1681 5.89623 3.5043 3.53774C5.87208 1.17925 8.83969 0 12.4071 0C15.4379 0 18.0266 0.864781 20.1734 2.59434C22.3518 4.29245 23.7409 6.54088 24.3407 9.33962H19.3684C18.8317 7.89308 17.9477 6.74528 16.7165 5.89623C15.4852 5.01572 14.0488 4.57547 12.4071 4.57547C10.2288 4.57547 8.41349 5.33019 6.96125 6.83962C5.54059 8.34906 4.83026 10.2358 4.83026 12.5C4.83026 14.7956 5.54059 16.6981 6.96125 18.2075C8.38192 19.6855 10.1972 20.4245 12.4071 20.4245C14.0172 20.4245 15.4379 20 16.6691 19.1509C17.9319 18.2704 18.8317 17.1226 19.3684 15.7075H24.3407Z" fill="black"/>
</svg>
