<svg xmlns="http://www.w3.org/2000/svg" width="80" height="80" viewBox="0 0 80 80" fill="none"><metadata><rdf:RDF xmlns:rdf="http://www.w3.org/1999/02/22-rdf-syntax-ns#" xmlns:dc="http://purl.org/dc/elements/1.1/"><rdf:Description><dc:creator>RealFaviconGenerator</dc:creator><dc:source>https://realfavicongenerator.net</dc:source></rdf:Description></rdf:RDF></metadata><rect width="80" height="80" rx="40" fill="black"></rect><path d="M52.6406 66C49.1678 66 46.2634 64.8208 43.9272 62.4623C41.6225 60.0723 40.4702 57.0849 40.4702 53.5C40.4702 49.8836 41.6699 46.8962 44.0692 44.5377C46.5001 42.1792 49.5467 41 53.2088 41C56.8394 41 59.8386 42.1635 62.2064 44.4906C64.6057 46.8176 65.8054 49.7421 65.8054 53.2642V65.5283H61.354V61.2358C60.4069 62.7138 59.144 63.8774 57.5655 64.7264C56.0186 65.5755 54.3769 66 52.6406 66ZM60.9751 53.5C60.9751 51.2358 60.2332 49.3491 58.7494 47.8396C57.2656 46.3302 55.3872 45.5755 53.1141 45.5755C50.8726 45.5755 49.01 46.3302 47.5262 47.8396C46.0424 49.3491 45.3005 51.2358 45.3005 53.5C45.3005 55.7956 46.0424 57.6981 47.5262 59.2075C49.01 60.6855 50.8726 61.4245 53.1141 61.4245C55.3872 61.4245 57.2656 60.6855 58.7494 59.2075C60.2332 57.6981 60.9751 55.7956 60.9751 53.5Z" fill="white"></path><path d="M31.5744 62.5095C31.0693 63.7673 30.501 64.6321 29.8696 65.1038C29.2382 65.5441 28.4332 65.7642 27.4545 65.7642C26.4758 65.7642 25.655 65.5283 24.992 65.0566C24.329 64.585 23.7765 63.7359 23.3346 62.5095L15 41.4717H20.1144L27.0756 60.2453C27.1704 60.4969 27.3282 60.6227 27.5492 60.6227C27.7386 60.6227 27.8807 60.4969 27.9754 60.2453L34.7946 41.4717H39.8143L31.5744 62.5095Z" fill="white"></path><path d="M61.9921 35.5094C59.6244 37.8365 56.6094 39 52.9473 39C49.2851 39 46.2543 37.8365 43.855 35.5094C41.4872 33.1509 40.3033 30.1478 40.3033 26.5C40.3033 22.8836 41.4872 19.8962 43.855 17.5377C46.2543 15.1792 49.2851 14 52.9473 14C56.6094 14 59.6244 15.1792 61.9921 17.5377C64.3915 19.8962 65.5912 22.8836 65.5912 26.5C65.5912 30.1478 64.3915 33.1509 61.9921 35.5094ZM47.312 32.2075C48.7958 33.6855 50.6742 34.4245 52.9473 34.4245C55.2203 34.4245 57.083 33.6855 58.5352 32.2075C60.019 30.6981 60.7609 28.7956 60.7609 26.5C60.7609 24.2044 60.019 22.3176 58.5352 20.8396C57.083 19.3302 55.2203 18.5755 52.9473 18.5755C50.6742 18.5755 48.7958 19.3302 47.312 20.8396C45.8597 22.3176 45.1336 24.2044 45.1336 26.5C45.1336 28.7956 45.8597 30.6981 47.312 32.2075Z" fill="white"></path><path d="M38.3407 29.7075C37.7093 32.5063 36.3202 34.7547 34.1734 36.4528C32.0266 38.1509 29.4379 39 26.4071 39C22.8397 39 19.8721 37.8208 17.5043 35.4623C15.1681 33.1038 14 30.1164 14 26.5C14 22.8836 15.1681 19.8962 17.5043 17.5377C19.8721 15.1792 22.8397 14 26.4071 14C29.4379 14 32.0266 14.8648 34.1734 16.5943C36.3518 18.2925 37.7409 20.5409 38.3407 23.3396H33.3684C32.8317 21.8931 31.9477 20.7453 30.7165 19.8962C29.4852 19.0157 28.0488 18.5755 26.4071 18.5755C24.2288 18.5755 22.4135 19.3302 20.9613 20.8396C19.5406 22.3491 18.8303 24.2358 18.8303 26.5C18.8303 28.7956 19.5406 30.6981 20.9613 32.2075C22.3819 33.6855 24.1972 34.4245 26.4071 34.4245C28.0172 34.4245 29.4379 34 30.6691 33.1509C31.9319 32.2704 32.8317 31.1226 33.3684 29.7075H38.3407Z" fill="white"></path></svg>